<mxfile host="app.diagrams.net" modified="2023-11-01T06:22:20.028Z" agent="Mozilla/5.0 (Macintosh; Intel Mac OS X 10_15_7) AppleWebKit/537.36 (KHTML, like Gecko) Chrome/111.0.0.0 Safari/537.36" etag="8maJHyWgkbEnVEboGePm" version="22.0.8" type="github">
  <diagram name="第 1 页" id="Y6YN0UifXXBLTrbvVRIB">
    <mxGraphModel dx="1193" dy="770" grid="1" gridSize="10" guides="1" tooltips="1" connect="1" arrows="1" fold="1" page="1" pageScale="1" pageWidth="827" pageHeight="1169" math="0" shadow="0">
      <root>
        <mxCell id="0" />
        <mxCell id="1" parent="0" />
        <mxCell id="9H6Dv00L7JDP5k7rZO34-27" value="" style="rounded=1;whiteSpace=wrap;html=1;strokeColor=default;align=center;verticalAlign=middle;fontFamily=Helvetica;fontSize=12;fontColor=default;fillColor=default;" parent="1" vertex="1">
          <mxGeometry x="390" y="130" width="740" height="100" as="geometry" />
        </mxCell>
        <mxCell id="9H6Dv00L7JDP5k7rZO34-5" value="" style="rounded=1;whiteSpace=wrap;html=1;strokeColor=#666666;fillColor=#f5f5f5;fontColor=#333333;" parent="1" vertex="1">
          <mxGeometry x="330" y="360" width="830" height="630" as="geometry" />
        </mxCell>
        <mxCell id="9H6Dv00L7JDP5k7rZO34-9" style="edgeStyle=orthogonalEdgeStyle;rounded=0;orthogonalLoop=1;jettySize=auto;html=1;entryX=0.5;entryY=0;entryDx=0;entryDy=0;curved=1;" parent="1" source="9H6Dv00L7JDP5k7rZO34-1" target="9H6Dv00L7JDP5k7rZO34-7" edge="1">
          <mxGeometry relative="1" as="geometry" />
        </mxCell>
        <mxCell id="9H6Dv00L7JDP5k7rZO34-10" value="一键加粉" style="edgeLabel;html=1;align=center;verticalAlign=middle;resizable=0;points=[];" parent="9H6Dv00L7JDP5k7rZO34-9" vertex="1" connectable="0">
          <mxGeometry x="-0.3803" relative="1" as="geometry">
            <mxPoint as="offset" />
          </mxGeometry>
        </mxCell>
        <mxCell id="9H6Dv00L7JDP5k7rZO34-1" value="客服工作台" style="rounded=1;whiteSpace=wrap;html=1;" parent="1" vertex="1">
          <mxGeometry x="490" y="160" width="90" height="40" as="geometry" />
        </mxCell>
        <mxCell id="9H6Dv00L7JDP5k7rZO34-13" style="edgeStyle=orthogonalEdgeStyle;rounded=0;orthogonalLoop=1;jettySize=auto;html=1;entryX=0.5;entryY=0;entryDx=0;entryDy=0;" parent="1" source="9H6Dv00L7JDP5k7rZO34-2" target="9H6Dv00L7JDP5k7rZO34-12" edge="1">
          <mxGeometry relative="1" as="geometry" />
        </mxCell>
        <mxCell id="9H6Dv00L7JDP5k7rZO34-2" value="一键建群" style="rounded=1;whiteSpace=wrap;html=1;" parent="1" vertex="1">
          <mxGeometry x="960" y="160" width="90" height="40" as="geometry" />
        </mxCell>
        <mxCell id="9H6Dv00L7JDP5k7rZO34-45" style="edgeStyle=orthogonalEdgeStyle;rounded=0;orthogonalLoop=1;jettySize=auto;html=1;fontFamily=Helvetica;fontSize=12;fontColor=default;curved=1;strokeColor=#66B2FF;" parent="1" source="9H6Dv00L7JDP5k7rZO34-3" edge="1">
          <mxGeometry relative="1" as="geometry">
            <mxPoint x="750" y="660" as="targetPoint" />
            <Array as="points">
              <mxPoint x="389" y="620" />
              <mxPoint x="750" y="620" />
            </Array>
          </mxGeometry>
        </mxCell>
        <mxCell id="9H6Dv00L7JDP5k7rZO34-46" value="营销任务创建&lt;br&gt;(客户群发、朋友圈群发等)" style="edgeLabel;html=1;align=center;verticalAlign=middle;resizable=0;points=[];fontSize=12;fontFamily=Helvetica;fontColor=default;" parent="9H6Dv00L7JDP5k7rZO34-45" vertex="1" connectable="0">
          <mxGeometry x="-0.6597" y="26" relative="1" as="geometry">
            <mxPoint as="offset" />
          </mxGeometry>
        </mxCell>
        <mxCell id="9H6Dv00L7JDP5k7rZO34-3" value="job" style="ellipse;shape=doubleEllipse;whiteSpace=wrap;html=1;aspect=fixed;" parent="1" vertex="1">
          <mxGeometry x="364" y="420" width="50" height="50" as="geometry" />
        </mxCell>
        <mxCell id="9H6Dv00L7JDP5k7rZO34-11" style="edgeStyle=orthogonalEdgeStyle;rounded=0;orthogonalLoop=1;jettySize=auto;html=1;curved=1;" parent="1" source="9H6Dv00L7JDP5k7rZO34-4" target="9H6Dv00L7JDP5k7rZO34-8" edge="1">
          <mxGeometry relative="1" as="geometry" />
        </mxCell>
        <mxCell id="9H6Dv00L7JDP5k7rZO34-16" value="任务邀约" style="edgeLabel;html=1;align=center;verticalAlign=middle;resizable=0;points=[];fontSize=12;fontFamily=Helvetica;fontColor=default;" parent="9H6Dv00L7JDP5k7rZO34-11" vertex="1" connectable="0">
          <mxGeometry x="-0.3929" relative="1" as="geometry">
            <mxPoint as="offset" />
          </mxGeometry>
        </mxCell>
        <mxCell id="9H6Dv00L7JDP5k7rZO34-4" value="任务邀约" style="rounded=1;whiteSpace=wrap;html=1;" parent="1" vertex="1">
          <mxGeometry x="700" y="160" width="100" height="40" as="geometry" />
        </mxCell>
        <mxCell id="9H6Dv00L7JDP5k7rZO34-18" style="edgeStyle=orthogonalEdgeStyle;rounded=0;orthogonalLoop=1;jettySize=auto;html=1;entryX=0.5;entryY=0;entryDx=0;entryDy=0;fontFamily=Helvetica;fontSize=12;fontColor=default;curved=1;exitX=0.5;exitY=1;exitDx=0;exitDy=0;strokeColor=#CC99FF;" parent="1" source="9H6Dv00L7JDP5k7rZO34-7" target="9H6Dv00L7JDP5k7rZO34-14" edge="1">
          <mxGeometry relative="1" as="geometry" />
        </mxCell>
        <mxCell id="9H6Dv00L7JDP5k7rZO34-31" value="加好友" style="edgeLabel;html=1;align=center;verticalAlign=middle;resizable=0;points=[];fontSize=12;fontFamily=Helvetica;fontColor=default;" parent="9H6Dv00L7JDP5k7rZO34-18" vertex="1" connectable="0">
          <mxGeometry x="-0.5347" y="8" relative="1" as="geometry">
            <mxPoint as="offset" />
          </mxGeometry>
        </mxCell>
        <mxCell id="9H6Dv00L7JDP5k7rZO34-7" value="接入&lt;span style=&quot;white-space: pre;&quot;&gt;&#x9;&lt;/span&gt;RPC接口" style="rounded=1;whiteSpace=wrap;html=1;" parent="1" vertex="1">
          <mxGeometry x="450" y="420" width="130" height="50" as="geometry" />
        </mxCell>
        <mxCell id="9H6Dv00L7JDP5k7rZO34-17" style="edgeStyle=orthogonalEdgeStyle;rounded=0;orthogonalLoop=1;jettySize=auto;html=1;fontFamily=Helvetica;fontSize=12;fontColor=default;curved=1;strokeColor=#CC99FF;" parent="1" source="9H6Dv00L7JDP5k7rZO34-8" target="9H6Dv00L7JDP5k7rZO34-14" edge="1">
          <mxGeometry relative="1" as="geometry" />
        </mxCell>
        <mxCell id="9H6Dv00L7JDP5k7rZO34-32" value="邀约任务" style="edgeLabel;html=1;align=center;verticalAlign=middle;resizable=0;points=[];fontSize=12;fontFamily=Helvetica;fontColor=default;" parent="9H6Dv00L7JDP5k7rZO34-17" vertex="1" connectable="0">
          <mxGeometry x="-0.759" y="5" relative="1" as="geometry">
            <mxPoint as="offset" />
          </mxGeometry>
        </mxCell>
        <mxCell id="9H6Dv00L7JDP5k7rZO34-8" value="接入MQ&lt;br&gt;topic:&amp;nbsp;dss_crm_sop_task_access&lt;br&gt;&lt;span class=&quot;lark-record-clipboard&quot; data-lark-record-format=&quot;docx/text&quot; data-lark-record-data=&quot;{&amp;quot;rootId&amp;quot;:&amp;quot;FImldMycgolcDUxQUyZcc2bRnjg&amp;quot;,&amp;quot;text&amp;quot;:{&amp;quot;initialAttributedTexts&amp;quot;:{&amp;quot;text&amp;quot;:{&amp;quot;0&amp;quot;:&amp;quot;dss_crm_sop_task_access&amp;quot;},&amp;quot;attribs&amp;quot;:{&amp;quot;0&amp;quot;:&amp;quot;*0+n&amp;quot;}},&amp;quot;apool&amp;quot;:{&amp;quot;numToAttrib&amp;quot;:{&amp;quot;0&amp;quot;:[&amp;quot;author&amp;quot;,&amp;quot;7220235268358848515&amp;quot;]},&amp;quot;nextNum&amp;quot;:1}},&amp;quot;type&amp;quot;:&amp;quot;text&amp;quot;,&amp;quot;referenceRecordMap&amp;quot;:{},&amp;quot;extra&amp;quot;:{&amp;quot;mention_page_title&amp;quot;:{},&amp;quot;external_mention_url&amp;quot;:{}},&amp;quot;isKeepQuoteContainer&amp;quot;:false,&amp;quot;isFromCode&amp;quot;:false,&amp;quot;selection&amp;quot;:[{&amp;quot;id&amp;quot;:20,&amp;quot;type&amp;quot;:&amp;quot;text&amp;quot;,&amp;quot;selection&amp;quot;:{&amp;quot;start&amp;quot;:0,&amp;quot;end&amp;quot;:23},&amp;quot;recordId&amp;quot;:&amp;quot;N4pZdVQWFocIQ4xhGyzcF8nhnQg&amp;quot;}],&amp;quot;payloadMap&amp;quot;:{},&amp;quot;isCut&amp;quot;:false}&quot;&gt;&lt;/span&gt;" style="rounded=1;whiteSpace=wrap;html=1;fillColor=#dae8fc;strokeColor=#6c8ebf;" parent="1" vertex="1">
          <mxGeometry x="610" y="420" width="210" height="50" as="geometry" />
        </mxCell>
        <mxCell id="9H6Dv00L7JDP5k7rZO34-15" style="edgeStyle=orthogonalEdgeStyle;rounded=0;orthogonalLoop=1;jettySize=auto;html=1;fontFamily=Helvetica;fontSize=12;fontColor=default;curved=1;strokeColor=#CC99FF;" parent="1" source="9H6Dv00L7JDP5k7rZO34-12" target="9H6Dv00L7JDP5k7rZO34-14" edge="1">
          <mxGeometry relative="1" as="geometry" />
        </mxCell>
        <mxCell id="9H6Dv00L7JDP5k7rZO34-30" value="建群欢迎语" style="edgeLabel;html=1;align=center;verticalAlign=middle;resizable=0;points=[];fontSize=12;fontFamily=Helvetica;fontColor=default;" parent="9H6Dv00L7JDP5k7rZO34-15" vertex="1" connectable="0">
          <mxGeometry x="-0.2405" y="-22" relative="1" as="geometry">
            <mxPoint x="-1" as="offset" />
          </mxGeometry>
        </mxCell>
        <mxCell id="9H6Dv00L7JDP5k7rZO34-12" value="企微客户事件MQ&lt;br&gt;topic：dss_crm_business_topic&lt;br&gt;&lt;span class=&quot;lark-record-clipboard&quot; data-lark-record-format=&quot;docx/text&quot; data-lark-record-data=&quot;{&amp;quot;rootId&amp;quot;:&amp;quot;FImldMycgolcDUxQUyZcc2bRnjg&amp;quot;,&amp;quot;text&amp;quot;:{&amp;quot;initialAttributedTexts&amp;quot;:{&amp;quot;text&amp;quot;:{&amp;quot;0&amp;quot;:&amp;quot;dss_crm_business_topic&amp;quot;},&amp;quot;attribs&amp;quot;:{&amp;quot;0&amp;quot;:&amp;quot;*0+m&amp;quot;}},&amp;quot;apool&amp;quot;:{&amp;quot;numToAttrib&amp;quot;:{&amp;quot;0&amp;quot;:[&amp;quot;author&amp;quot;,&amp;quot;7220235268358848515&amp;quot;]},&amp;quot;nextNum&amp;quot;:1}},&amp;quot;type&amp;quot;:&amp;quot;text&amp;quot;,&amp;quot;referenceRecordMap&amp;quot;:{},&amp;quot;extra&amp;quot;:{&amp;quot;mention_page_title&amp;quot;:{},&amp;quot;external_mention_url&amp;quot;:{}},&amp;quot;isKeepQuoteContainer&amp;quot;:false,&amp;quot;isFromCode&amp;quot;:false,&amp;quot;selection&amp;quot;:[{&amp;quot;id&amp;quot;:28,&amp;quot;type&amp;quot;:&amp;quot;text&amp;quot;,&amp;quot;selection&amp;quot;:{&amp;quot;start&amp;quot;:0,&amp;quot;end&amp;quot;:22},&amp;quot;recordId&amp;quot;:&amp;quot;Mccud6d0NoNiJLx3LFicwxuCnGh&amp;quot;}],&amp;quot;payloadMap&amp;quot;:{},&amp;quot;isCut&amp;quot;:false}&quot;&gt;&lt;/span&gt;" style="rounded=1;whiteSpace=wrap;html=1;fillColor=#f8cecc;strokeColor=#b85450;" parent="1" vertex="1">
          <mxGeometry x="910" y="270" width="190" height="50" as="geometry" />
        </mxCell>
        <mxCell id="9H6Dv00L7JDP5k7rZO34-21" style="edgeStyle=orthogonalEdgeStyle;rounded=0;orthogonalLoop=1;jettySize=auto;html=1;fontFamily=Helvetica;fontSize=12;fontColor=default;curved=1;strokeColor=#CC99FF;" parent="1" source="9H6Dv00L7JDP5k7rZO34-14" target="9H6Dv00L7JDP5k7rZO34-20" edge="1">
          <mxGeometry relative="1" as="geometry" />
        </mxCell>
        <mxCell id="9H6Dv00L7JDP5k7rZO34-23" value="跟单任务创建" style="edgeLabel;html=1;align=center;verticalAlign=middle;resizable=0;points=[];fontSize=12;fontFamily=Helvetica;fontColor=default;" parent="9H6Dv00L7JDP5k7rZO34-21" vertex="1" connectable="0">
          <mxGeometry x="-0.1695" y="-3" relative="1" as="geometry">
            <mxPoint as="offset" />
          </mxGeometry>
        </mxCell>
        <mxCell id="9H6Dv00L7JDP5k7rZO34-14" value="事件MQ&lt;br&gt;topic:&amp;nbsp;dss_crm_sop_event_topic&lt;br&gt;&lt;span class=&quot;lark-record-clipboard&quot; data-lark-record-format=&quot;docx/text&quot; data-lark-record-data=&quot;{&amp;quot;rootId&amp;quot;:&amp;quot;FImldMycgolcDUxQUyZcc2bRnjg&amp;quot;,&amp;quot;text&amp;quot;:{&amp;quot;initialAttributedTexts&amp;quot;:{&amp;quot;text&amp;quot;:{&amp;quot;0&amp;quot;:&amp;quot;dss_crm_sop_event_topic&amp;quot;},&amp;quot;attribs&amp;quot;:{&amp;quot;0&amp;quot;:&amp;quot;*0+n&amp;quot;}},&amp;quot;apool&amp;quot;:{&amp;quot;numToAttrib&amp;quot;:{&amp;quot;0&amp;quot;:[&amp;quot;author&amp;quot;,&amp;quot;7220235268358848515&amp;quot;]},&amp;quot;nextNum&amp;quot;:1}},&amp;quot;type&amp;quot;:&amp;quot;text&amp;quot;,&amp;quot;referenceRecordMap&amp;quot;:{},&amp;quot;extra&amp;quot;:{&amp;quot;mention_page_title&amp;quot;:{},&amp;quot;external_mention_url&amp;quot;:{}},&amp;quot;isKeepQuoteContainer&amp;quot;:false,&amp;quot;isFromCode&amp;quot;:false,&amp;quot;selection&amp;quot;:[{&amp;quot;id&amp;quot;:15,&amp;quot;type&amp;quot;:&amp;quot;text&amp;quot;,&amp;quot;selection&amp;quot;:{&amp;quot;start&amp;quot;:0,&amp;quot;end&amp;quot;:23},&amp;quot;recordId&amp;quot;:&amp;quot;SeJVd5J5EoVo28xKH6ecCVTpnXb&amp;quot;}],&amp;quot;payloadMap&amp;quot;:{},&amp;quot;isCut&amp;quot;:false}&quot;&gt;&lt;/span&gt;" style="rounded=1;whiteSpace=wrap;html=1;fillColor=#dae8fc;strokeColor=#6c8ebf;" parent="1" vertex="1">
          <mxGeometry x="640" y="550" width="400" height="46" as="geometry" />
        </mxCell>
        <mxCell id="9H6Dv00L7JDP5k7rZO34-34" style="edgeStyle=orthogonalEdgeStyle;rounded=0;orthogonalLoop=1;jettySize=auto;html=1;entryX=0.5;entryY=0;entryDx=0;entryDy=0;fontFamily=Helvetica;fontSize=12;fontColor=default;curved=1;strokeColor=#66B2FF;" parent="1" source="9H6Dv00L7JDP5k7rZO34-20" target="9H6Dv00L7JDP5k7rZO34-33" edge="1">
          <mxGeometry relative="1" as="geometry" />
        </mxCell>
        <mxCell id="9H6Dv00L7JDP5k7rZO34-36" value="转发营销任务" style="edgeLabel;html=1;align=center;verticalAlign=middle;resizable=0;points=[];fontSize=12;fontFamily=Helvetica;fontColor=default;" parent="9H6Dv00L7JDP5k7rZO34-34" vertex="1" connectable="0">
          <mxGeometry x="-0.3211" y="-1" relative="1" as="geometry">
            <mxPoint as="offset" />
          </mxGeometry>
        </mxCell>
        <mxCell id="9H6Dv00L7JDP5k7rZO34-39" style="edgeStyle=orthogonalEdgeStyle;rounded=0;orthogonalLoop=1;jettySize=auto;html=1;fontFamily=Helvetica;fontSize=12;fontColor=default;curved=1;strokeColor=#CC99FF;" parent="1" source="9H6Dv00L7JDP5k7rZO34-20" target="9H6Dv00L7JDP5k7rZO34-35" edge="1">
          <mxGeometry relative="1" as="geometry" />
        </mxCell>
        <mxCell id="9H6Dv00L7JDP5k7rZO34-40" value="下发跟单任务" style="edgeLabel;html=1;align=center;verticalAlign=middle;resizable=0;points=[];fontSize=12;fontFamily=Helvetica;fontColor=default;" parent="9H6Dv00L7JDP5k7rZO34-39" vertex="1" connectable="0">
          <mxGeometry x="-0.1311" relative="1" as="geometry">
            <mxPoint y="14" as="offset" />
          </mxGeometry>
        </mxCell>
        <mxCell id="9H6Dv00L7JDP5k7rZO34-20" value="sop任务创建流程" style="rounded=1;whiteSpace=wrap;html=1;strokeColor=default;align=center;verticalAlign=middle;fontFamily=Helvetica;fontSize=12;fontColor=default;fillColor=default;" parent="1" vertex="1">
          <mxGeometry x="400" y="660" width="710" height="40" as="geometry" />
        </mxCell>
        <mxCell id="9H6Dv00L7JDP5k7rZO34-28" value="跟单任务" style="text;html=1;strokeColor=none;fillColor=none;align=center;verticalAlign=middle;whiteSpace=wrap;rounded=0;fontSize=16;fontFamily=Helvetica;fontColor=default;" parent="1" vertex="1">
          <mxGeometry x="384" y="140" width="110" height="30" as="geometry" />
        </mxCell>
        <mxCell id="9H6Dv00L7JDP5k7rZO34-29" value="sop平台" style="text;html=1;strokeColor=none;fillColor=none;align=center;verticalAlign=middle;whiteSpace=wrap;rounded=0;fontSize=20;fontFamily=Helvetica;fontColor=default;strokeWidth=6;" parent="1" vertex="1">
          <mxGeometry x="394" y="360" width="96" height="50" as="geometry" />
        </mxCell>
        <mxCell id="9H6Dv00L7JDP5k7rZO34-37" style="edgeStyle=orthogonalEdgeStyle;rounded=0;orthogonalLoop=1;jettySize=auto;html=1;entryX=0.5;entryY=0;entryDx=0;entryDy=0;fontFamily=Helvetica;fontSize=12;fontColor=default;curved=1;strokeColor=#66B2FF;" parent="1" source="9H6Dv00L7JDP5k7rZO34-33" target="9H6Dv00L7JDP5k7rZO34-35" edge="1">
          <mxGeometry relative="1" as="geometry" />
        </mxCell>
        <mxCell id="9H6Dv00L7JDP5k7rZO34-38" value="下发营销任务" style="edgeLabel;html=1;align=center;verticalAlign=middle;resizable=0;points=[];fontSize=12;fontFamily=Helvetica;fontColor=default;" parent="9H6Dv00L7JDP5k7rZO34-37" vertex="1" connectable="0">
          <mxGeometry x="-0.0604" relative="1" as="geometry">
            <mxPoint as="offset" />
          </mxGeometry>
        </mxCell>
        <mxCell id="9H6Dv00L7JDP5k7rZO34-33" value="营销任务MQ&lt;br&gt;topic:&amp;nbsp;dss_crm_sop_market_task&lt;span class=&quot;lark-record-clipboard&quot; data-lark-record-format=&quot;docx/text&quot; data-lark-record-data=&quot;{&amp;quot;rootId&amp;quot;:&amp;quot;FImldMycgolcDUxQUyZcc2bRnjg&amp;quot;,&amp;quot;text&amp;quot;:{&amp;quot;initialAttributedTexts&amp;quot;:{&amp;quot;text&amp;quot;:{&amp;quot;0&amp;quot;:&amp;quot;dss_crm_sop_event_topic&amp;quot;},&amp;quot;attribs&amp;quot;:{&amp;quot;0&amp;quot;:&amp;quot;*0+n&amp;quot;}},&amp;quot;apool&amp;quot;:{&amp;quot;numToAttrib&amp;quot;:{&amp;quot;0&amp;quot;:[&amp;quot;author&amp;quot;,&amp;quot;7220235268358848515&amp;quot;]},&amp;quot;nextNum&amp;quot;:1}},&amp;quot;type&amp;quot;:&amp;quot;text&amp;quot;,&amp;quot;referenceRecordMap&amp;quot;:{},&amp;quot;extra&amp;quot;:{&amp;quot;mention_page_title&amp;quot;:{},&amp;quot;external_mention_url&amp;quot;:{}},&amp;quot;isKeepQuoteContainer&amp;quot;:false,&amp;quot;isFromCode&amp;quot;:false,&amp;quot;selection&amp;quot;:[{&amp;quot;id&amp;quot;:15,&amp;quot;type&amp;quot;:&amp;quot;text&amp;quot;,&amp;quot;selection&amp;quot;:{&amp;quot;start&amp;quot;:0,&amp;quot;end&amp;quot;:23},&amp;quot;recordId&amp;quot;:&amp;quot;SeJVd5J5EoVo28xKH6ecCVTpnXb&amp;quot;}],&amp;quot;payloadMap&amp;quot;:{},&amp;quot;isCut&amp;quot;:false}&quot;&gt;&lt;/span&gt;" style="rounded=1;whiteSpace=wrap;html=1;fillColor=#dae8fc;strokeColor=#6c8ebf;" parent="1" vertex="1">
          <mxGeometry x="364" y="750" width="286" height="50" as="geometry" />
        </mxCell>
        <mxCell id="9H6Dv00L7JDP5k7rZO34-44" value="" style="edgeStyle=orthogonalEdgeStyle;rounded=0;orthogonalLoop=1;jettySize=auto;html=1;fontFamily=Helvetica;fontSize=12;fontColor=default;" parent="1" source="9H6Dv00L7JDP5k7rZO34-35" target="9H6Dv00L7JDP5k7rZO34-43" edge="1">
          <mxGeometry relative="1" as="geometry" />
        </mxCell>
        <mxCell id="9H6Dv00L7JDP5k7rZO34-35" value="sop任务下发流程" style="rounded=1;whiteSpace=wrap;html=1;strokeColor=default;align=center;verticalAlign=middle;fontFamily=Helvetica;fontSize=12;fontColor=default;fillColor=default;" parent="1" vertex="1">
          <mxGeometry x="510" y="860" width="510" height="40" as="geometry" />
        </mxCell>
        <mxCell id="9H6Dv00L7JDP5k7rZO34-43" value="结束" style="ellipse;whiteSpace=wrap;html=1;rounded=1;" parent="1" vertex="1">
          <mxGeometry x="745.63" y="930" width="38.75" height="40" as="geometry" />
        </mxCell>
      </root>
    </mxGraphModel>
  </diagram>
</mxfile>
